<svg xmlns="http://www.w3.org/2000/svg" version="1.1" xmlnsXlink="http://www.w3.org/1999/xlink" xmlnsSvgjs="http://svgjs.dev/svgjs" viewBoxlinkHrefx="0 0 800 800" opacity="0.3"><defs><symbol id="bbburst-shape-1" viewBox="0 0 194 167"><path d="m97 0 96.129 166.5H.871L97 0Z"></path></symbol><symbol id="bbburst-shape-5" viewBox="0 0 145 145"><circle cx="72.5" cy="72.5" r="72.5"></circle></symbol><symbol id="bbburst-shape-10" viewBox="0 0 145 145"><circle cx="72.5" cy="72.5" r="61.5" fill="none" stroke-width="22"></circle></symbol><symbol id="bbburst-shape-11" viewBox="0 0 194 167"><path d="M10.398 161 97 11l86.603 150H10.397Z" stroke-width="11"></path></symbol><symbol id="bbburst-shape-13" viewBox="0 0 159 159"><path stroke-width="22" d="M11 11h137v137H11z"></path></symbol></defs><use xlinkHref="#bbburst-shape-5" width="51.378824128921536" opacity="0.11141235962723706" transform="matrix(0.9477117368638052,-0.3191276606792174,0.3191276606792174,0.9477117368638052,51.531988439873174,-319.1547740550543)" fill="#00a19d"></use><use xlinkHref="#bbburst-shape-5" width="34.065434115389266" opacity="0.5013959780422279" transform="matrix(0.8312119032640622,0.5559557283382691,-0.5559557283382691,0.8312119032640622,787.0587411889583,-77.45705296750003)" fill="#ffbd9b"></use><use xlinkHref="#bbburst-shape-10" width="41.13973437169949" opacity="0.45625253421070733" transform="matrix(0.8778595367237397,-0.47891819111741935,0.47891819111741935,0.8778595367237397,12.490225255691058,226.72032171509892)" fill="none" stroke="#2c2891"></use><use xlinkHref="#bbburst-shape-5" width="25.367692934829076" opacity="0.6583570708446743" transform="matrix(0.7717418118235897,-0.6359359841078684,0.6359359841078684,0.7717418118235897,85.37181905733252,-45.85129728239906)" fill="#ffa6d5"></use><use xlinkHref="#bbburst-shape-5" width="46.0778404463351" opacity="0.5683964499288685" transform="matrix(0.9991402142619206,0.04145880177529766,-0.04145880177529766,0.9991402142619206,583.0469082034475,42.03167308811658)" fill="#ffbd9b"></use><use xlinkHref="#bbburst-shape-11" width="33.37707934510876" opacity="0.5857821314679332" transform="matrix(0.9997521027767341,0.022265062171447636,-0.022265062171447636,0.9997521027767341,221.86993480936016,74.93665996049668)" fill="none" stroke="#ff5c58"></use><use xlinkHref="#bbburst-shape-10" width="43.87307559617153" opacity="0.2269570428905351" transform="matrix(0.9975831216126027,0.06948320281661818,-0.06948320281661818,0.9975831216126027,159.2885648348075,244.7811989304917)" fill="none" stroke="#00a19d"></use><use xlinkHref="#bbburst-shape-1" width="54.5707853425078" opacity="0.33256038937625665" transform="matrix(0.9982058680551894,0.05987524513674969,-0.05987524513674969,0.9982058680551894,116.19899288353791,106.49799485354879)" fill="#2c2891"></use><use xlinkHref="#bbburst-shape-13" width="35.358785520015545" opacity="0.7287719570091515" transform="matrix(0.962430255497677,-0.27152901005726104,0.27152901005726104,0.962430255497677,178.71371661937548,-55.9746918055983)" fill="none" stroke="#2c2891"></use><use xlinkHref="#bbburst-shape-5" width="34.20771056282794" opacity="0.5752308552873366" transform="matrix(0.8830065885414837,-0.4693605912220698,0.4693605912220698,0.8830065885414837,302.06263764581473,214.60882591074636)" fill="#ff5c58"></use><use xlinkHref="#bbburst-shape-5" width="43.88955478162552" opacity="0.39628624025019943" transform="matrix(0.8262139563741594,0.5633564575759815,-0.5633564575759815,0.8262139563741594,719.2062548427431,-190.36076647664598)" fill="#ffbd9b"></use><use xlinkHref="#bbburst-shape-13" width="49.69009167338197" opacity="0.18906847469296206" transform="matrix(0.8807011015372973,-0.47367242874268195,0.47367242874268195,0.8807011015372973,-86.67635489523542,-180.01448937376816)" fill="none" stroke="#00a19d"></use><use xlinkHref="#bbburst-shape-5" width="37.92803504624384" opacity="0.12063993917825022" transform="matrix(0.7401331881438341,-0.6724603064925422,0.6724603064925422,0.7401331881438341,-66.3447243190763,467.384388071418)" fill="#ffa6d5"></use><use xlinkHref="#bbburst-shape-13" width="39.15140729323999" opacity="0.3671858457284163" transform="matrix(0.9925365377282157,-0.12194761692827874,0.12194761692827874,0.9925365377282157,223.98309219518205,268.9428200758558)" fill="none" stroke="#ffa6d5"></use><use xlinkHref="#bbburst-shape-11" width="31.271178181015937" opacity="0.7652792794401693" transform="matrix(0.7344420871684979,0.6786713642077294,-0.6786713642077294,0.7344420871684979,582.8094779424925,167.13589742909596)" fill="none" stroke="#ffa6d5"></use><use xlinkHref="#bbburst-shape-5" width="41.35006849310747" opacity="0.5483506768143135" transform="matrix(0.8946847015406465,-0.446698203297399,0.446698203297399,0.8946847015406465,18.304442573856903,-33.845574251713174)" fill="#ff5c58"></use><use xlinkHref="#bbburst-shape-13" width="30.697004704301598" opacity="0.8721026320850093" transform="matrix(0.9393487422811803,0.3429634679885961,-0.3429634679885961,0.9393487422811803,580.120850692387,14.193569766997427)" fill="none" stroke="#ffbd9b"></use><use xlinkHref="#bbburst-shape-11" width="40.00247423931373" opacity="0.49602447313457076" transform="matrix(0.8151111416119645,-0.5793046062479047,0.5793046062479047,0.8151111416119645,154.9313440338322,311.8878062409345)" fill="none" stroke="#ffa6d5"></use><use xlinkHref="#bbburst-shape-11" width="27.528576498618616" opacity="0.8589406336170086" transform="matrix(0.9594795175154166,0.2817783800584837,-0.2817783800584837,0.9594795175154166,486.63816090332693,-50.14890666988066)" fill="none" stroke="#2c2891"></use><use xlinkHref="#bbburst-shape-13" width="49.96073199629318" opacity="0.11550136315997028" transform="matrix(0.9680090334771788,0.2509153464947451,-0.2509153464947451,0.9680090334771788,122.07633026643248,188.2714073275199)" fill="none" stroke="#ff5c58"></use><use xlinkHref="#bbburst-shape-13" width="43.414935061497204" opacity="0.3536676958621181" transform="matrix(0.8067169157729406,0.5909380828866881,-0.5909380828866881,0.8067169157729406,461.23165866179795,-179.9437917500052)" fill="none" stroke="#2c2891"></use><use xlinkHref="#bbburst-shape-13" width="34.82046087456512" opacity="0.21003893520670092" transform="matrix(0.8062551125130165,0.5915679957085433,-0.5915679957085433,0.8062551125130165,975.5086210929278,24.580447871258514)" fill="none" stroke="#ff5c58"></use><use xlinkHref="#bbburst-shape-5" width="54.56911660380176" opacity="-0.042737134742160565" transform="matrix(0.983033569488126,-0.183425737723564,0.183425737723564,0.983033569488126,626.628975994964,348.49067873200886)" fill="#2c2891"></use><use xlinkHref="#bbburst-shape-11" width="42.8284938842171" opacity="0.22329250777894571" transform="matrix(0.851553245519443,0.524268128008277,-0.524268128008277,0.851553245519443,574.5527852880325,396.7764007173663)" fill="none" stroke="#00a19d"></use><use xlinkHref="#bbburst-shape-5" width="42.484303271545684" opacity="0.22455256641147925" transform="matrix(0.8496146204081446,-0.5274040166596423,0.5274040166596423,0.8496146204081446,108.29071614466719,-271.91477080603147)" fill="#00a19d"></use><use xlinkHref="#bbburst-shape-11" width="45.36482913187343" opacity="0.1272311482877807" transform="matrix(0.9489337213419564,0.31547550221864484,-0.31547550221864484,0.9489337213419564,145.83361015276841,-146.5204561252974)" fill="none" stroke="#2c2891"></use><use xlinkHref="#bbburst-shape-1" width="43.91475036858401" opacity="0.1258901316592601" transform="matrix(0.9492557009215773,-0.31450534855211143,0.31450534855211143,0.9492557009215773,601.422019559263,-156.0057555104761)" fill="#2c2891"></use><use xlinkHref="#bbburst-shape-10" width="49.70059484047765" opacity="0.12726371842538486" transform="matrix(0.997646022640067,0.06857414607893376,-0.06857414607893376,0.997646022640067,605.8244071520717,-336.8474864067836)" fill="none" stroke="#ffa6d5"></use><use xlinkHref="#bbburst-shape-11" width="30.44993952691537" opacity="0.7237245171297981" transform="matrix(0.72473857488362,-0.6890239459377733,0.6890239459377733,0.72473857488362,124.2405168767803,244.13309299494068)" fill="none" stroke="#2c2891"></use><use xlinkHref="#bbburst-shape-11" width="40.37330377035834" opacity="0.746867456896064" transform="matrix(0.8836664047273531,0.46811717032836303,-0.46811717032836303,0.8836664047273531,663.1727329487404,101.6571065223082)" fill="none" stroke="#ffbd9b"></use><use xlinkHref="#bbburst-shape-1" width="35.79154907518354" opacity="0.6063285264834835" transform="matrix(0.9904400204804008,-0.1379440677622029,0.1379440677622029,0.9904400204804008,248.7858755523202,165.23808536297946)" fill="#ffa6d5"></use><use xlinkHref="#bbburst-shape-13" width="45.59349840728065" opacity="0.2863863161983107" transform="matrix(0.8143885796665616,0.5803199473641074,-0.5803199473641074,0.8143885796665616,858.1025907833439,-147.12466266155207)" fill="none" stroke="#ffbd9b"></use><use xlinkHref="#bbburst-shape-13" width="38.99145943844991" opacity="0.673649555173055" transform="matrix(0.8635188280620719,0.5043166005420662,-0.5043166005420662,0.8635188280620719,725.0893266696959,1.0362175668605573)" fill="none" stroke="#ffa6d5"></use><use xlinkHref="#bbburst-shape-1" width="42.51319044120082" opacity="0.1375145470538044" transform="matrix(0.9664814286005572,-0.25673653454509743,0.25673653454509743,0.9664814286005572,432.99528535466834,374.208126747368)" fill="#ff5c58"></use><use xlinkHref="#bbburst-shape-11" width="35.978180267601786" opacity="0.7844804581085628" transform="matrix(0.7235101646949107,0.690313726926492,-0.690313726926492,0.7235101646949107,722.6252331984308,21.019124496283382)" fill="none" stroke="#00a19d"></use><use xlinkHref="#bbburst-shape-13" width="48.093939593288155" opacity="0.21316541742543782" transform="matrix(0.881385425117418,0.472397853922505,-0.472397853922505,0.881385425117418,635.0131517533389,-311.54462657636657)" fill="none" stroke="#ffa6d5"></use><use xlinkHref="#bbburst-shape-11" width="52.98449047803984" opacity="0.2726402205561137" transform="matrix(0.9942792821571683,-0.10681155870516112,0.10681155870516112,0.9942792821571683,650.0553845626274,76.88563553814441)" fill="none" stroke="#2c2891"></use><use xlinkHref="#bbburst-shape-10" width="44.42050180360155" opacity="0.43141696429031573" transform="matrix(0.7661300619406916,-0.6426855593451217,0.6426855593451217,0.7661300619406916,336.0085261124426,253.8498873871756)" fill="none" stroke="#ffa6d5"></use><use xlinkHref="#bbburst-shape-13" width="31.800258386534324" opacity="0.9069099269854457" transform="matrix(0.9425118513897561,0.33417272478443577,-0.33417272478443577,0.9425118513897561,520.5290914754294,59.53169868253735)" fill="none" stroke="#00a19d"></use><use xlinkHref="#bbburst-shape-5" width="53.479271963065045" opacity="0.21455779174442324" transform="matrix(0.9506202414415907,0.310356499144986,-0.310356499144986,0.9506202414415907,145.29114080469807,14.89795727191489)" fill="#ffa6d5"></use><use xlinkHref="#bbburst-shape-13" width="54.06710461265075" opacity="0.12350167405375134" transform="matrix(0.9717030479679403,0.23620581400510587,-0.23620581400510587,0.9717030479679403,812.840390122515,196.77427266024836)" fill="none" stroke="#ff5c58"></use><use xlinkHref="#bbburst-shape-11" width="48.62561128247504" opacity="0.4505449360043777" transform="matrix(0.8957663503080667,0.4445251912499064,-0.4445251912499064,0.8957663503080667,309.0552886763594,30.44821131007228)" fill="none" stroke="#2c2891"></use><use xlinkHref="#bbburst-shape-13" width="24.540778077253744" opacity="0.6433478535782972" transform="matrix(0.9157619845358335,-0.40172128108800986,0.40172128108800986,0.9157619845358335,251.42370523011314,-120.16146230957315)" fill="none" stroke="#ffa6d5"></use><use xlinkHref="#bbburst-shape-5" width="36.399721678059095" opacity="0.4563915065487856" transform="matrix(0.9821433856212992,0.18813391528465032,-0.18813391528465032,0.9821433856212992,434.09201861687484,-239.7942882403961)" fill="#2c2891"></use><use xlinkHref="#bbburst-shape-1" width="50.909405486381026" opacity="-0.050073150740147954" transform="matrix(0.9759354221462219,0.21805974364901856,-0.21805974364901856,0.9759354221462219,127.55533634452382,337.58817934451156)" fill="#00a19d"></use><use xlinkHref="#bbburst-shape-11" width="55.2201098821511" opacity="-0.043879784704645264" transform="matrix(0.9658350531914954,-0.25915757759822716,0.25915757759822716,0.9658350531914954,603.7273339229635,-309.9323237302794)" fill="none" stroke="#ffa6d5"></use><use xlinkHref="#bbburst-shape-10" width="39.1352651470105" opacity="0.42446255793224197" transform="matrix(0.8742062768699932,0.48555471934798944,-0.48555471934798944,0.8742062768699932,829.8063791312264,-15.96581069967425)" fill="none" stroke="#2c2891"></use><use xlinkHref="#bbburst-shape-11" width="40.79823691461272" opacity="-0.058491971757459904" transform="matrix(0.9021175984285518,-0.4314902531987278,0.4314902531987278,0.9021175984285518,-130.83996118958862,-286.50132330218844)" fill="none" stroke="#2c2891"></use><use xlinkHref="#bbburst-shape-11" width="38.57894341067144" opacity="0.35153710570726804" transform="matrix(0.9998125878809642,-0.019359470932061664,0.019359470932061664,0.9998125878809642,105.1803578478847,-116.0044625569339)" fill="none" stroke="#2c2891"></use><use xlinkHref="#bbburst-shape-5" width="28.55373655587007" opacity="0.5982866509161653" transform="matrix(0.9988391405671605,-0.048170232208867896,0.048170232208867896,0.9988391405671605,463.2498783627292,-151.531033043753)" fill="#ff5c58"></use><use xlinkHref="#bbburst-shape-11" width="43.85535621646514" opacity="0.36492668585375976" transform="matrix(0.8456837402907448,-0.5336843743336094,0.5336843743336094,0.8456837402907448,265.018424716903,341.6465709269475)" fill="none" stroke="#00a19d"></use><use xlinkHref="#bbburst-shape-5" width="57.45264675354241" opacity="0.2376445222748681" transform="matrix(0.8818432026402165,0.4715427509327718,-0.4715427509327718,0.8818432026402165,793.1008196316031,288.42242462855364)" fill="#2c2891"></use><use xlinkHref="#bbburst-shape-13" width="34.78969578034528" opacity="0.6835613447523551" transform="matrix(0.8955107191365451,-0.4450399441752928,0.4450399441752928,0.8955107191365451,64.07833350407245,45.10532570626748)" fill="none" stroke="#00a19d"></use><use xlinkHref="#bbburst-shape-13" width="27.431677339776684" opacity="0.5284324241535889" transform="matrix(0.9066885636054859,-0.4218007214633715,0.4218007214633715,0.9066885636054859,82.98259300309445,-119.9020121986766)" fill="none" stroke="#ffa6d5"></use><use xlinkHref="#bbburst-shape-10" width="33.23398464562139" opacity="0.8720757857470307" transform="matrix(0.9210185063521419,-0.3895188197723822,0.3895188197723822,0.9210185063521419,171.48425550199318,33.74629449972923)" fill="none" stroke="#ffa6d5"></use></svg>